{"title":"Airline Disaster 2010 DVDrip Xvid UniversalAbsurdity","uid":5663807,"size":738802392,"categoryP":"video","categoryS":"movies","magnet":"?xt=urn:btih:7d083592d851bf77cb89bdabc0dafe3858b0117b&amp;dn=Airline+Disaster+2010+DVDrip+Xvid+UniversalAbsurdity&amp;tr=udp%3A%2F%2Ftracker.openbittorrent.com%3A80&amp;tr=udp%3A%2F%2Fopen.demonii.com%3A1337&amp;tr=udp%3A%2F%2Ftracker.coppersurfer.tk%3A6969&amp;tr=udp%3A%2F%2Fexodus.desync.com%3A6969","seeders":0,"leechers":1,"uploader":"Absurdity","files":2,"time":1278064006,"description":"[center][IMG]http://img708.imageshack.us/img708/5593/000co.jpg[/IMG]\n\n\n\nFormat : AVI \nFormat/Info : Audio Video Interleave \nFile size : 699 MiB \nDuration : 1h 29mn \nOverall bit rate : 1 093 Kbps \n \n\nVideo \nID : 0 \nFormat : MPEG-4 Visual \nFormat profile : Advanced Simple@L5 \nFormat settings, BVOP : Yes \nFormat settings, QPel : No \nFormat settings, GMC : No warppoints \nFormat settings, Matrix : Default (H.263) \nMuxing mode : Packed bitstream \nCodec ID : XVID \nCodec ID/Hint : XviD \nDuration : 1h 29mn \nBit rate : 955 Kbps \nWidth : 608 pixels \nHeight : 336 pixels \nDisplay aspect ratio : 16:9 \nFrame rate : 23.976 fps \nResolution : 8 bits \nColorimetry : 4:2:0 \nScan type : Progressive \nBits/(Pixel*Frame) : 0.195 \nStream size : 611 MiB (87%) \n\nAudio \nID : 1 \nFormat : MPEG Audio \nFormat version : Version 1 \nFormat profile : Layer 3 \nMode : Joint stereo \nFormat_Settings_ModeExtension : MS Stereo \nCodec ID : 55 \nCodec ID/Hint : MP3 \nDuration : 1h 29mn \nBit rate mode : Constant \nBit rate : 128 Kbps \nChannel(s) : 2 channels \nSampling rate : 48.0 KHz \nStream size : 81.9 MiB (12%) \nAlignment : Aligned on interleaves \nInterleave, duration : 42 ms (1.00 video frame) \nInterleave, preload duration : 504 ms \nWriting library : LAME3.97  \n\nBought to you By\n\nUniversalAbsurdity\n\n\n\n\n[/center]","torrent":{"xt":"urn:btih:7d083592d851bf77cb89bdabc0dafe3858b0117b","amp;dn":"Airline+Disaster+2010+DVDrip+Xvid+UniversalAbsurdity","amp;tr":["udp%3A%2F%2Ftracker.openbittorrent.com%3A80","udp%3A%2F%2Fopen.demonii.com%3A1337","udp%3A%2F%2Ftracker.coppersurfer.tk%3A6969","udp%3A%2F%2Fexodus.desync.com%3A6969"],"infoHash":"7d083592d851bf77cb89bdabc0dafe3858b0117b","infoHashBuffer":{"type":"Buffer","data":[125,8,53,146,216,81,191,119,203,137,189,171,192,218,254,56,88,176,17,123]},"announce":[],"urlList":[]}}